<svg id="visual" viewBox="0 0 1536 768" width="1536" height="768" xmlns="http://www.w3.org/2000/svg" xmlns:xlink="http://www.w3.org/1999/xlink" version="1.1"><g stroke-width="1" stroke-linejoin="bevel"><path d="M741.2 417L693.2 483L830.8 539Z" fill="#a2a8ce" stroke="#a2a8ce"></path><path d="M830.8 539L868.8 406L741.2 417Z" fill="#bdc2dd" stroke="#bdc2dd"></path><path d="M707.2 685L822.8 659L830.8 539Z" fill="#959bc6" stroke="#959bc6"></path><path d="M1000.5 465L934.5 394L868.8 406Z" fill="#888fbf" stroke="#888fbf"></path><path d="M1000.5 465L868.8 406L830.8 539Z" fill="#959bc6" stroke="#959bc6"></path><path d="M868.8 406L851.8 270L741.2 417Z" fill="#888fbf" stroke="#888fbf"></path><path d="M693.2 483L707.2 685L830.8 539Z" fill="#afb5d5" stroke="#afb5d5"></path><path d="M936.5 676L1000.5 465L830.8 539Z" fill="#a2a8ce" stroke="#a2a8ce"></path><path d="M939.5 279L868.8 406L934.5 394Z" fill="#bdc2dd" stroke="#bdc2dd"></path><path d="M939.5 279L851.8 270L868.8 406Z" fill="#a2a8ce" stroke="#a2a8ce"></path><path d="M881.8 768L936.5 676L822.8 659Z" fill="#7b82b7" stroke="#7b82b7"></path><path d="M822.8 659L936.5 676L830.8 539Z" fill="#e8eaf2" stroke="#e8eaf2"></path><path d="M515.5 547L539.5 596L693.2 483Z" fill="#d9ddeb" stroke="#d9ddeb"></path><path d="M693.2 483L539.5 596L707.2 685Z" fill="#e8eaf2" stroke="#e8eaf2"></path><path d="M515.5 547L693.2 483L517.5 358Z" fill="#6f76b0" stroke="#6f76b0"></path><path d="M517.5 358L693.2 483L741.2 417Z" fill="#888fbf" stroke="#888fbf"></path><path d="M1117.1 416L939.5 279L934.5 394Z" fill="#888fbf" stroke="#888fbf"></path><path d="M801.8 168L679.2 219L851.8 270Z" fill="#888fbf" stroke="#888fbf"></path><path d="M851.8 270L679.2 219L741.2 417Z" fill="#626aa8" stroke="#626aa8"></path><path d="M679.2 219L517.5 358L741.2 417Z" fill="#afb5d5" stroke="#afb5d5"></path><path d="M568.5 768L705.2 768L707.2 685Z" fill="#6f76b0" stroke="#6f76b0"></path><path d="M707.2 685L705.2 768L822.8 659Z" fill="#7b82b7" stroke="#7b82b7"></path><path d="M705.2 768L881.8 768L822.8 659Z" fill="#626aa8" stroke="#626aa8"></path><path d="M939.5 279L801.8 168L851.8 270Z" fill="#6f76b0" stroke="#6f76b0"></path><path d="M881.8 768L971.5 768L936.5 676Z" fill="#6f76b0" stroke="#6f76b0"></path><path d="M1134.1 498L1117.1 416L1000.5 465Z" fill="#888fbf" stroke="#888fbf"></path><path d="M452.9 645L568.5 768L539.5 596Z" fill="#e8eaf2" stroke="#e8eaf2"></path><path d="M539.5 596L568.5 768L707.2 685Z" fill="#6f76b0" stroke="#6f76b0"></path><path d="M424.9 229L437.9 393L517.5 358Z" fill="#afb5d5" stroke="#afb5d5"></path><path d="M517.5 358L437.9 393L515.5 547Z" fill="#afb5d5" stroke="#afb5d5"></path><path d="M515.5 547L452.9 645L539.5 596Z" fill="#6f76b0" stroke="#6f76b0"></path><path d="M1134.1 498L1000.5 465L1127.1 596Z" fill="#d9ddeb" stroke="#d9ddeb"></path><path d="M1000.5 465L1117.1 416L934.5 394Z" fill="#bdc2dd" stroke="#bdc2dd"></path><path d="M792.8 0L720.2 91L801.8 168Z" fill="#6f76b0" stroke="#6f76b0"></path><path d="M395.9 504L452.9 645L515.5 547Z" fill="#888fbf" stroke="#888fbf"></path><path d="M599.5 112L518.5 240L679.2 219Z" fill="#6f76b0" stroke="#6f76b0"></path><path d="M679.2 219L518.5 240L517.5 358Z" fill="#e8eaf2" stroke="#e8eaf2"></path><path d="M1127.1 596L1000.5 465L936.5 676Z" fill="#bdc2dd" stroke="#bdc2dd"></path><path d="M1083.1 768L1127.1 596L936.5 676Z" fill="#a2a8ce" stroke="#a2a8ce"></path><path d="M437.9 393L395.9 504L515.5 547Z" fill="#959bc6" stroke="#959bc6"></path><path d="M1022.5 110L801.8 168L939.5 279Z" fill="#7b82b7" stroke="#7b82b7"></path><path d="M801.8 168L720.2 91L679.2 219Z" fill="#d9ddeb" stroke="#d9ddeb"></path><path d="M720.2 91L599.5 112L679.2 219Z" fill="#d9ddeb" stroke="#d9ddeb"></path><path d="M971.5 768L1083.1 768L936.5 676Z" fill="#626aa8" stroke="#626aa8"></path><path d="M1244.7 359L1094.1 211L1117.1 416Z" fill="#bdc2dd" stroke="#bdc2dd"></path><path d="M1117.1 416L1094.1 211L939.5 279Z" fill="#a2a8ce" stroke="#a2a8ce"></path><path d="M409.9 118L424.9 229L518.5 240Z" fill="#bdc2dd" stroke="#bdc2dd"></path><path d="M518.5 240L424.9 229L517.5 358Z" fill="#d9ddeb" stroke="#d9ddeb"></path><path d="M437.9 393L294.3 407L395.9 504Z" fill="#d9ddeb" stroke="#d9ddeb"></path><path d="M452.9 645L436.9 768L568.5 768Z" fill="#e8eaf2" stroke="#e8eaf2"></path><path d="M317.3 768L436.9 768L452.9 645Z" fill="#e8eaf2" stroke="#e8eaf2"></path><path d="M1094.1 211L1022.5 110L939.5 279Z" fill="#afb5d5" stroke="#afb5d5"></path><path d="M296.3 226L294.3 407L437.9 393Z" fill="#afb5d5" stroke="#afb5d5"></path><path d="M395.9 504L296.3 639L452.9 645Z" fill="#a2a8ce" stroke="#a2a8ce"></path><path d="M1127.1 596L1254.7 514L1134.1 498Z" fill="#6f76b0" stroke="#6f76b0"></path><path d="M1134.1 498L1254.7 514L1117.1 416Z" fill="#d9ddeb" stroke="#d9ddeb"></path><path d="M1244.7 612L1254.7 514L1127.1 596Z" fill="#a2a8ce" stroke="#a2a8ce"></path><path d="M1259.7 768L1244.7 612L1127.1 596Z" fill="#959bc6" stroke="#959bc6"></path><path d="M956.5 0L792.8 0L801.8 168Z" fill="#afb5d5" stroke="#afb5d5"></path><path d="M720.2 91L679.2 0L599.5 112Z" fill="#d9ddeb" stroke="#d9ddeb"></path><path d="M1254.7 514L1244.7 359L1117.1 416Z" fill="#888fbf" stroke="#888fbf"></path><path d="M1094.1 211L1139.1 131L1022.5 110Z" fill="#6f76b0" stroke="#6f76b0"></path><path d="M792.8 0L679.2 0L720.2 91Z" fill="#a2a8ce" stroke="#a2a8ce"></path><path d="M599.5 112L409.9 118L518.5 240Z" fill="#a2a8ce" stroke="#a2a8ce"></path><path d="M253.3 484L296.3 639L395.9 504Z" fill="#7b82b7" stroke="#7b82b7"></path><path d="M1249.7 240L1139.1 131L1094.1 211Z" fill="#7b82b7" stroke="#7b82b7"></path><path d="M1022.5 110L956.5 0L801.8 168Z" fill="#e8eaf2" stroke="#e8eaf2"></path><path d="M294.3 407L253.3 484L395.9 504Z" fill="#959bc6" stroke="#959bc6"></path><path d="M576.5 0L409.9 118L599.5 112Z" fill="#bdc2dd" stroke="#bdc2dd"></path><path d="M424.9 229L296.3 226L437.9 393Z" fill="#959bc6" stroke="#959bc6"></path><path d="M129.6 407L130.6 477L253.3 484Z" fill="#a2a8ce" stroke="#a2a8ce"></path><path d="M1134.1 0L956.5 0L1022.5 110Z" fill="#afb5d5" stroke="#afb5d5"></path><path d="M679.2 0L576.5 0L599.5 112Z" fill="#e8eaf2" stroke="#e8eaf2"></path><path d="M175.6 623L317.3 768L296.3 639Z" fill="#afb5d5" stroke="#afb5d5"></path><path d="M296.3 639L317.3 768L452.9 645Z" fill="#d9ddeb" stroke="#d9ddeb"></path><path d="M1377.4 301L1249.7 240L1244.7 359Z" fill="#6f76b0" stroke="#6f76b0"></path><path d="M1244.7 359L1249.7 240L1094.1 211Z" fill="#a2a8ce" stroke="#a2a8ce"></path><path d="M409.9 118L296.3 226L424.9 229Z" fill="#bdc2dd" stroke="#bdc2dd"></path><path d="M1244.7 612L1356.4 528L1254.7 514Z" fill="#7b82b7" stroke="#7b82b7"></path><path d="M1254.7 514L1356.4 528L1244.7 359Z" fill="#cbcfe4" stroke="#cbcfe4"></path><path d="M1083.1 768L1259.7 768L1127.1 596Z" fill="#afb5d5" stroke="#afb5d5"></path><path d="M1363.4 640L1356.4 528L1244.7 612Z" fill="#e8eaf2" stroke="#e8eaf2"></path><path d="M576.5 0L425.9 0L409.9 118Z" fill="#626aa8" stroke="#626aa8"></path><path d="M409.9 118L297.3 108L296.3 226Z" fill="#959bc6" stroke="#959bc6"></path><path d="M425.9 0L297.3 108L409.9 118Z" fill="#afb5d5" stroke="#afb5d5"></path><path d="M130.6 477L175.6 623L253.3 484Z" fill="#cbcfe4" stroke="#cbcfe4"></path><path d="M1291.7 126L1134.1 0L1139.1 131Z" fill="#d9ddeb" stroke="#d9ddeb"></path><path d="M1139.1 131L1134.1 0L1022.5 110Z" fill="#7b82b7" stroke="#7b82b7"></path><path d="M253.3 484L175.6 623L296.3 639Z" fill="#d9ddeb" stroke="#d9ddeb"></path><path d="M253.3 484L294.3 407L129.6 407Z" fill="#bdc2dd" stroke="#bdc2dd"></path><path d="M1259.7 768L1363.4 640L1244.7 612Z" fill="#a2a8ce" stroke="#a2a8ce"></path><path d="M1249.7 240L1291.7 126L1139.1 131Z" fill="#e8eaf2" stroke="#e8eaf2"></path><path d="M1377.4 301L1291.7 126L1249.7 240Z" fill="#6f76b0" stroke="#6f76b0"></path><path d="M1435.4 418L1244.7 359L1356.4 528Z" fill="#e8eaf2" stroke="#e8eaf2"></path><path d="M1435.4 418L1377.4 301L1244.7 359Z" fill="#959bc6" stroke="#959bc6"></path><path d="M129.6 407L294.3 407L111.6 290Z" fill="#bdc2dd" stroke="#bdc2dd"></path><path d="M111.6 290L294.3 407L296.3 226Z" fill="#888fbf" stroke="#888fbf"></path><path d="M1259.7 768L1357.4 768L1363.4 640Z" fill="#cbcfe4" stroke="#cbcfe4"></path><path d="M1536 556L1435.4 418L1356.4 528Z" fill="#d9ddeb" stroke="#d9ddeb"></path><path d="M1388.4 0L1302.7 0L1291.7 126Z" fill="#626aa8" stroke="#626aa8"></path><path d="M1536 556L1356.4 528L1363.4 640Z" fill="#959bc6" stroke="#959bc6"></path><path d="M170.6 99L111.6 290L296.3 226Z" fill="#888fbf" stroke="#888fbf"></path><path d="M0 412L0 538L130.6 477Z" fill="#626aa8" stroke="#626aa8"></path><path d="M425.9 0L272.3 0L297.3 108Z" fill="#bdc2dd" stroke="#bdc2dd"></path><path d="M297.3 108L170.6 99L296.3 226Z" fill="#afb5d5" stroke="#afb5d5"></path><path d="M0 605L121.6 768L175.6 623Z" fill="#626aa8" stroke="#626aa8"></path><path d="M175.6 623L121.6 768L317.3 768Z" fill="#888fbf" stroke="#888fbf"></path><path d="M0 538L175.6 623L130.6 477Z" fill="#e8eaf2" stroke="#e8eaf2"></path><path d="M272.3 0L170.6 99L297.3 108Z" fill="#888fbf" stroke="#888fbf"></path><path d="M1436.4 130L1291.7 126L1377.4 301Z" fill="#7b82b7" stroke="#7b82b7"></path><path d="M1291.7 126L1302.7 0L1134.1 0Z" fill="#6f76b0" stroke="#6f76b0"></path><path d="M1536 269L1436.4 130L1377.4 301Z" fill="#6f76b0" stroke="#6f76b0"></path><path d="M1536 665L1536 556L1363.4 640Z" fill="#959bc6" stroke="#959bc6"></path><path d="M1435.4 418L1536 374L1377.4 301Z" fill="#d9ddeb" stroke="#d9ddeb"></path><path d="M0 412L130.6 477L129.6 407Z" fill="#e8eaf2" stroke="#e8eaf2"></path><path d="M0 412L129.6 407L111.6 290Z" fill="#7b82b7" stroke="#7b82b7"></path><path d="M1536 556L1536 374L1435.4 418Z" fill="#afb5d5" stroke="#afb5d5"></path><path d="M0 238L0 412L111.6 290Z" fill="#959bc6" stroke="#959bc6"></path><path d="M272.3 0L164.6 0L170.6 99Z" fill="#d9ddeb" stroke="#d9ddeb"></path><path d="M0 172L0 238L111.6 290Z" fill="#e8eaf2" stroke="#e8eaf2"></path><path d="M0 538L0 605L175.6 623Z" fill="#afb5d5" stroke="#afb5d5"></path><path d="M1357.4 768L1536 665L1363.4 640Z" fill="#888fbf" stroke="#888fbf"></path><path d="M1436.4 130L1388.4 0L1291.7 126Z" fill="#6f76b0" stroke="#6f76b0"></path><path d="M1536 0L1388.4 0L1436.4 130Z" fill="#bdc2dd" stroke="#bdc2dd"></path><path d="M1536 374L1536 269L1377.4 301Z" fill="#e8eaf2" stroke="#e8eaf2"></path><path d="M0 172L111.6 290L170.6 99Z" fill="#888fbf" stroke="#888fbf"></path><path d="M1357.4 768L1536 768L1536 665Z" fill="#e8eaf2" stroke="#e8eaf2"></path><path d="M0 605L0 768L121.6 768Z" fill="#cbcfe4" stroke="#cbcfe4"></path><path d="M0 0L0 172L170.6 99Z" fill="#d9ddeb" stroke="#d9ddeb"></path><path d="M1536 269L1536 158L1436.4 130Z" fill="#a2a8ce" stroke="#a2a8ce"></path><path d="M1536 158L1536 0L1436.4 130Z" fill="#e8eaf2" stroke="#e8eaf2"></path><path d="M164.6 0L0 0L170.6 99Z" fill="#959bc6" stroke="#959bc6"></path></g></svg>