<svg id="visual" viewBox="0 0 540 960" width="540" height="960" xmlns="http://www.w3.org/2000/svg" xmlns:xlink="http://www.w3.org/1999/xlink" version="1.1"><g stroke-width="1" stroke-linejoin="bevel"><path d="M255 495L338.5 470L274 450Z" fill="#6f76b0" stroke="#6f76b0"></path><path d="M255 495L351.5 510L338.5 470Z" fill="#d9ddeb" stroke="#d9ddeb"></path><path d="M255 495L269 562L351.5 510Z" fill="#6f76b0" stroke="#6f76b0"></path><path d="M319.5 591L385 522L351.5 510Z" fill="#626aa8" stroke="#626aa8"></path><path d="M351.5 510L393 450L338.5 470Z" fill="#cbcfe4" stroke="#cbcfe4"></path><path d="M174.5 450L210.5 523L255 495Z" fill="#7b82b7" stroke="#7b82b7"></path><path d="M255 495L210.5 523L269 562Z" fill="#e8eaf2" stroke="#e8eaf2"></path><path d="M393 450L327.5 391L338.5 470Z" fill="#959bc6" stroke="#959bc6"></path><path d="M338.5 470L327.5 391L274 450Z" fill="#6f76b0" stroke="#6f76b0"></path><path d="M385 522L393 450L351.5 510Z" fill="#6f76b0" stroke="#6f76b0"></path><path d="M269 562L319.5 591L351.5 510Z" fill="#626aa8" stroke="#626aa8"></path><path d="M257 369L229.5 397L274 450Z" fill="#afb5d5" stroke="#afb5d5"></path><path d="M274 450L174.5 450L255 495Z" fill="#afb5d5" stroke="#afb5d5"></path><path d="M210.5 523L217.5 569L269 562Z" fill="#e8eaf2" stroke="#e8eaf2"></path><path d="M269 562L248 633L319.5 591Z" fill="#6f76b0" stroke="#6f76b0"></path><path d="M327.5 391L257 369L274 450Z" fill="#959bc6" stroke="#959bc6"></path><path d="M147 364L174.5 450L229.5 397Z" fill="#888fbf" stroke="#888fbf"></path><path d="M229.5 397L174.5 450L274 450Z" fill="#d9ddeb" stroke="#d9ddeb"></path><path d="M210.5 523L161 578L217.5 569Z" fill="#6f76b0" stroke="#6f76b0"></path><path d="M319.5 591L396 590L385 522Z" fill="#888fbf" stroke="#888fbf"></path><path d="M385 522L454.5 470L393 450Z" fill="#626aa8" stroke="#626aa8"></path><path d="M448.5 359L397 372L393 450Z" fill="#cbcfe4" stroke="#cbcfe4"></path><path d="M393 450L397 372L327.5 391Z" fill="#888fbf" stroke="#888fbf"></path><path d="M327.5 391L315.5 330L257 369Z" fill="#bdc2dd" stroke="#bdc2dd"></path><path d="M217.5 569L248 633L269 562Z" fill="#a2a8ce" stroke="#a2a8ce"></path><path d="M319.5 591L385 637L396 590Z" fill="#d9ddeb" stroke="#d9ddeb"></path><path d="M481.5 503L454.5 470L385 522Z" fill="#afb5d5" stroke="#afb5d5"></path><path d="M397 372L315.5 330L327.5 391Z" fill="#cbcfe4" stroke="#cbcfe4"></path><path d="M315.5 330L242 339L257 369Z" fill="#d9ddeb" stroke="#d9ddeb"></path><path d="M257 369L242 339L229.5 397Z" fill="#626aa8" stroke="#626aa8"></path><path d="M124 487L161 578L210.5 523Z" fill="#e8eaf2" stroke="#e8eaf2"></path><path d="M217.5 569L224.5 663L248 633Z" fill="#888fbf" stroke="#888fbf"></path><path d="M248 633L316.5 651L319.5 591Z" fill="#959bc6" stroke="#959bc6"></path><path d="M316.5 651L385 637L319.5 591Z" fill="#959bc6" stroke="#959bc6"></path><path d="M468.5 596L481.5 503L385 522Z" fill="#626aa8" stroke="#626aa8"></path><path d="M108 423L124 487L174.5 450Z" fill="#e8eaf2" stroke="#e8eaf2"></path><path d="M174.5 450L124 487L210.5 523Z" fill="#626aa8" stroke="#626aa8"></path><path d="M468.5 596L385 522L396 590Z" fill="#d9ddeb" stroke="#d9ddeb"></path><path d="M454.5 470L448.5 359L393 450Z" fill="#888fbf" stroke="#888fbf"></path><path d="M161 578L224.5 663L217.5 569Z" fill="#6f76b0" stroke="#6f76b0"></path><path d="M248 633L264 695L316.5 651Z" fill="#bdc2dd" stroke="#bdc2dd"></path><path d="M184.5 318L147 364L229.5 397Z" fill="#7b82b7" stroke="#7b82b7"></path><path d="M540 437L448.5 359L454.5 470Z" fill="#626aa8" stroke="#626aa8"></path><path d="M397 372L417 315L315.5 330Z" fill="#afb5d5" stroke="#afb5d5"></path><path d="M147 364L108 423L174.5 450Z" fill="#888fbf" stroke="#888fbf"></path><path d="M462.5 638L468.5 596L396 590Z" fill="#afb5d5" stroke="#afb5d5"></path><path d="M242 339L184.5 318L229.5 397Z" fill="#959bc6" stroke="#959bc6"></path><path d="M229.5 270L184.5 318L242 339Z" fill="#afb5d5" stroke="#afb5d5"></path><path d="M448.5 359L417 315L397 372Z" fill="#e8eaf2" stroke="#e8eaf2"></path><path d="M315.5 330L229.5 270L242 339Z" fill="#d9ddeb" stroke="#d9ddeb"></path><path d="M108 423L88.5 503L124 487Z" fill="#888fbf" stroke="#888fbf"></path><path d="M124 487L88.5 503L161 578Z" fill="#626aa8" stroke="#626aa8"></path><path d="M131 726L226.5 699L224.5 663Z" fill="#bdc2dd" stroke="#bdc2dd"></path><path d="M224.5 663L264 695L248 633Z" fill="#a2a8ce" stroke="#a2a8ce"></path><path d="M316.5 651L328.5 711L385 637Z" fill="#7b82b7" stroke="#7b82b7"></path><path d="M419 726L462.5 638L385 637Z" fill="#d9ddeb" stroke="#d9ddeb"></path><path d="M385 637L462.5 638L396 590Z" fill="#bdc2dd" stroke="#bdc2dd"></path><path d="M224.5 663L226.5 699L264 695Z" fill="#626aa8" stroke="#626aa8"></path><path d="M114 654L224.5 663L161 578Z" fill="#888fbf" stroke="#888fbf"></path><path d="M257 753L328.5 711L264 695Z" fill="#888fbf" stroke="#888fbf"></path><path d="M264 695L328.5 711L316.5 651Z" fill="#a2a8ce" stroke="#a2a8ce"></path><path d="M332.5 254L229.5 270L315.5 330Z" fill="#888fbf" stroke="#888fbf"></path><path d="M417 315L332.5 254L315.5 330Z" fill="#959bc6" stroke="#959bc6"></path><path d="M147 364L80.5 391L108 423Z" fill="#7b82b7" stroke="#7b82b7"></path><path d="M108 423L45.5 465L88.5 503Z" fill="#626aa8" stroke="#626aa8"></path><path d="M112 330L80.5 391L147 364Z" fill="#959bc6" stroke="#959bc6"></path><path d="M112 330L147 364L184.5 318Z" fill="#d9ddeb" stroke="#d9ddeb"></path><path d="M448.5 359L472.5 318L417 315Z" fill="#959bc6" stroke="#959bc6"></path><path d="M417 315L418 242L332.5 254Z" fill="#d9ddeb" stroke="#d9ddeb"></path><path d="M540 374L472.5 318L448.5 359Z" fill="#d9ddeb" stroke="#d9ddeb"></path><path d="M130 249L112 330L184.5 318Z" fill="#7b82b7" stroke="#7b82b7"></path><path d="M540 572L540 529L481.5 503Z" fill="#e8eaf2" stroke="#e8eaf2"></path><path d="M481.5 503L540 437L454.5 470Z" fill="#888fbf" stroke="#888fbf"></path><path d="M540 572L481.5 503L468.5 596Z" fill="#e8eaf2" stroke="#e8eaf2"></path><path d="M540 529L540 437L481.5 503Z" fill="#626aa8" stroke="#626aa8"></path><path d="M73.5 612L114 654L161 578Z" fill="#a2a8ce" stroke="#a2a8ce"></path><path d="M80.5 391L45.5 465L108 423Z" fill="#bdc2dd" stroke="#bdc2dd"></path><path d="M88.5 503L73.5 612L161 578Z" fill="#bdc2dd" stroke="#bdc2dd"></path><path d="M540 628L540 572L468.5 596Z" fill="#d9ddeb" stroke="#d9ddeb"></path><path d="M51.5 597L73.5 612L88.5 503Z" fill="#afb5d5" stroke="#afb5d5"></path><path d="M332.5 254L242 229L229.5 270Z" fill="#959bc6" stroke="#959bc6"></path><path d="M229.5 270L130 249L184.5 318Z" fill="#626aa8" stroke="#626aa8"></path><path d="M540 437L540 374L448.5 359Z" fill="#e8eaf2" stroke="#e8eaf2"></path><path d="M328.5 711L419 726L385 637Z" fill="#a2a8ce" stroke="#a2a8ce"></path><path d="M462.5 638L540 628L468.5 596Z" fill="#e8eaf2" stroke="#e8eaf2"></path><path d="M342.5 753L419 726L328.5 711Z" fill="#bdc2dd" stroke="#bdc2dd"></path><path d="M217.5 782L257 753L226.5 699Z" fill="#a2a8ce" stroke="#a2a8ce"></path><path d="M226.5 699L257 753L264 695Z" fill="#d9ddeb" stroke="#d9ddeb"></path><path d="M257 753L342.5 753L328.5 711Z" fill="#cbcfe4" stroke="#cbcfe4"></path><path d="M0 485L51.5 597L88.5 503Z" fill="#7b82b7" stroke="#7b82b7"></path><path d="M73.5 612L81.5 681L114 654Z" fill="#a2a8ce" stroke="#a2a8ce"></path><path d="M418 242L314.5 216L332.5 254Z" fill="#e8eaf2" stroke="#e8eaf2"></path><path d="M332.5 254L314.5 216L242 229Z" fill="#888fbf" stroke="#888fbf"></path><path d="M472.5 318L418 242L417 315Z" fill="#888fbf" stroke="#888fbf"></path><path d="M489.5 232L418 242L472.5 318Z" fill="#888fbf" stroke="#888fbf"></path><path d="M471.5 715L540 628L462.5 638Z" fill="#d9ddeb" stroke="#d9ddeb"></path><path d="M491.5 775L471.5 715L419 726Z" fill="#6f76b0" stroke="#6f76b0"></path><path d="M419 726L471.5 715L462.5 638Z" fill="#e8eaf2" stroke="#e8eaf2"></path><path d="M244 194L200.5 214L242 229Z" fill="#7b82b7" stroke="#7b82b7"></path><path d="M242 229L200.5 214L229.5 270Z" fill="#959bc6" stroke="#959bc6"></path><path d="M0 663L81.5 681L73.5 612Z" fill="#959bc6" stroke="#959bc6"></path><path d="M114 654L131 726L224.5 663Z" fill="#7b82b7" stroke="#7b82b7"></path><path d="M200.5 214L130 249L229.5 270Z" fill="#888fbf" stroke="#888fbf"></path><path d="M0 411L45.5 465L80.5 391Z" fill="#e8eaf2" stroke="#e8eaf2"></path><path d="M0 459L0 485L45.5 465Z" fill="#959bc6" stroke="#959bc6"></path><path d="M81.5 681L131 726L114 654Z" fill="#959bc6" stroke="#959bc6"></path><path d="M540 374L540 318L472.5 318Z" fill="#7b82b7" stroke="#7b82b7"></path><path d="M314.5 216L244 194L242 229Z" fill="#e8eaf2" stroke="#e8eaf2"></path><path d="M329.5 154L244 194L314.5 216Z" fill="#bdc2dd" stroke="#bdc2dd"></path><path d="M0 459L45.5 465L0 411Z" fill="#888fbf" stroke="#888fbf"></path><path d="M45.5 465L0 485L88.5 503Z" fill="#d9ddeb" stroke="#d9ddeb"></path><path d="M51.5 597L0 663L73.5 612Z" fill="#e8eaf2" stroke="#e8eaf2"></path><path d="M57.5 307L80.5 391L112 330Z" fill="#7b82b7" stroke="#7b82b7"></path><path d="M94.5 241L57.5 307L112 330Z" fill="#888fbf" stroke="#888fbf"></path><path d="M153 777L217.5 782L226.5 699Z" fill="#888fbf" stroke="#888fbf"></path><path d="M253 850L363.5 832L342.5 753Z" fill="#7b82b7" stroke="#7b82b7"></path><path d="M57.5 307L0 411L80.5 391Z" fill="#d9ddeb" stroke="#d9ddeb"></path><path d="M0 485L0 591L51.5 597Z" fill="#a2a8ce" stroke="#a2a8ce"></path><path d="M540 270L489.5 232L472.5 318Z" fill="#afb5d5" stroke="#afb5d5"></path><path d="M381 153L329.5 154L314.5 216Z" fill="#e8eaf2" stroke="#e8eaf2"></path><path d="M130 249L94.5 241L112 330Z" fill="#afb5d5" stroke="#afb5d5"></path><path d="M124 182L94.5 241L130 249Z" fill="#959bc6" stroke="#959bc6"></path><path d="M124 182L130 249L200.5 214Z" fill="#959bc6" stroke="#959bc6"></path><path d="M131 726L153 777L226.5 699Z" fill="#a2a8ce" stroke="#a2a8ce"></path><path d="M56.5 790L153 777L131 726Z" fill="#959bc6" stroke="#959bc6"></path><path d="M56.5 790L131 726L81.5 681Z" fill="#bdc2dd" stroke="#bdc2dd"></path><path d="M540 318L540 270L472.5 318Z" fill="#7b82b7" stroke="#7b82b7"></path><path d="M400 804L422 789L342.5 753Z" fill="#d9ddeb" stroke="#d9ddeb"></path><path d="M342.5 753L422 789L419 726Z" fill="#6f76b0" stroke="#6f76b0"></path><path d="M471.5 715L540 716L540 628Z" fill="#e8eaf2" stroke="#e8eaf2"></path><path d="M363.5 832L400 804L342.5 753Z" fill="#888fbf" stroke="#888fbf"></path><path d="M342.5 753L257 753L253 850Z" fill="#a2a8ce" stroke="#a2a8ce"></path><path d="M491.5 775L419 726L422 789Z" fill="#a2a8ce" stroke="#a2a8ce"></path><path d="M540 753L540 716L471.5 715Z" fill="#959bc6" stroke="#959bc6"></path><path d="M381 153L314.5 216L418 242Z" fill="#7b82b7" stroke="#7b82b7"></path><path d="M183.5 131L124 182L200.5 214Z" fill="#6f76b0" stroke="#6f76b0"></path><path d="M540 212L461.5 186L489.5 232Z" fill="#a2a8ce" stroke="#a2a8ce"></path><path d="M489.5 232L461.5 186L418 242Z" fill="#afb5d5" stroke="#afb5d5"></path><path d="M461.5 186L428 169L418 242Z" fill="#7b82b7" stroke="#7b82b7"></path><path d="M428 169L381 153L418 242Z" fill="#888fbf" stroke="#888fbf"></path><path d="M0 591L0 663L51.5 597Z" fill="#cbcfe4" stroke="#cbcfe4"></path><path d="M449.5 844L491.5 775L422 789Z" fill="#888fbf" stroke="#888fbf"></path><path d="M183.5 131L200.5 214L244 194Z" fill="#d9ddeb" stroke="#d9ddeb"></path><path d="M0 236L0 292L57.5 307Z" fill="#afb5d5" stroke="#afb5d5"></path><path d="M57.5 307L0 292L0 411Z" fill="#626aa8" stroke="#626aa8"></path><path d="M253 850L257 753L217.5 782Z" fill="#afb5d5" stroke="#afb5d5"></path><path d="M400 804L449.5 844L422 789Z" fill="#d9ddeb" stroke="#d9ddeb"></path><path d="M0 236L57.5 307L94.5 241Z" fill="#bdc2dd" stroke="#bdc2dd"></path><path d="M293 53L242 135L329.5 154Z" fill="#a2a8ce" stroke="#a2a8ce"></path><path d="M329.5 154L242 135L244 194Z" fill="#626aa8" stroke="#626aa8"></path><path d="M491.5 775L540 753L471.5 715Z" fill="#e8eaf2" stroke="#e8eaf2"></path><path d="M540 270L540 212L489.5 232Z" fill="#d9ddeb" stroke="#d9ddeb"></path><path d="M382 74L381 153L428 169Z" fill="#7b82b7" stroke="#7b82b7"></path><path d="M213.5 851L253 850L217.5 782Z" fill="#bdc2dd" stroke="#bdc2dd"></path><path d="M242 135L183.5 131L244 194Z" fill="#a2a8ce" stroke="#a2a8ce"></path><path d="M194.5 869L213.5 851L153 777Z" fill="#888fbf" stroke="#888fbf"></path><path d="M153 777L213.5 851L217.5 782Z" fill="#e8eaf2" stroke="#e8eaf2"></path><path d="M0 663L0 727L81.5 681Z" fill="#888fbf" stroke="#888fbf"></path><path d="M0 727L56.5 790L81.5 681Z" fill="#bdc2dd" stroke="#bdc2dd"></path><path d="M428 903L449.5 844L363.5 832Z" fill="#626aa8" stroke="#626aa8"></path><path d="M363.5 832L449.5 844L400 804Z" fill="#7b82b7" stroke="#7b82b7"></path><path d="M491.5 775L540 840L540 753Z" fill="#bdc2dd" stroke="#bdc2dd"></path><path d="M0 219L94.5 241L58.5 165Z" fill="#959bc6" stroke="#959bc6"></path><path d="M0 219L0 236L94.5 241Z" fill="#7b82b7" stroke="#7b82b7"></path><path d="M213.5 851L246 880L253 850Z" fill="#7b82b7" stroke="#7b82b7"></path><path d="M253 850L333.5 890L363.5 832Z" fill="#888fbf" stroke="#888fbf"></path><path d="M111 846L194.5 869L153 777Z" fill="#d9ddeb" stroke="#d9ddeb"></path><path d="M183.5 131L125 130L124 182Z" fill="#6f76b0" stroke="#6f76b0"></path><path d="M194.5 869L246 880L213.5 851Z" fill="#d9ddeb" stroke="#d9ddeb"></path><path d="M58.5 165L94.5 241L124 182Z" fill="#afb5d5" stroke="#afb5d5"></path><path d="M125 130L58.5 165L124 182Z" fill="#e8eaf2" stroke="#e8eaf2"></path><path d="M382 74L360.5 90L381 153Z" fill="#626aa8" stroke="#626aa8"></path><path d="M381 153L360.5 90L329.5 154Z" fill="#bdc2dd" stroke="#bdc2dd"></path><path d="M242 135L207.5 46L183.5 131Z" fill="#bdc2dd" stroke="#bdc2dd"></path><path d="M183.5 131L145 39L125 130Z" fill="#bdc2dd" stroke="#bdc2dd"></path><path d="M499.5 135L428 169L461.5 186Z" fill="#626aa8" stroke="#626aa8"></path><path d="M246 880L333.5 890L253 850Z" fill="#888fbf" stroke="#888fbf"></path><path d="M85.5 836L111 846L153 777Z" fill="#afb5d5" stroke="#afb5d5"></path><path d="M540 212L499.5 135L461.5 186Z" fill="#888fbf" stroke="#888fbf"></path><path d="M0 816L85.5 836L56.5 790Z" fill="#e8eaf2" stroke="#e8eaf2"></path><path d="M56.5 790L85.5 836L153 777Z" fill="#959bc6" stroke="#959bc6"></path><path d="M0 727L0 777L56.5 790Z" fill="#959bc6" stroke="#959bc6"></path><path d="M499.5 135L382 74L428 169Z" fill="#626aa8" stroke="#626aa8"></path><path d="M360.5 90L293 53L329.5 154Z" fill="#d9ddeb" stroke="#d9ddeb"></path><path d="M540 212L540 142L499.5 135Z" fill="#7b82b7" stroke="#7b82b7"></path><path d="M499.5 135L486.5 37L382 74Z" fill="#959bc6" stroke="#959bc6"></path><path d="M497.5 895L540 840L449.5 844Z" fill="#e8eaf2" stroke="#e8eaf2"></path><path d="M449.5 844L540 840L491.5 775Z" fill="#bdc2dd" stroke="#bdc2dd"></path><path d="M206.5 960L288 960L246 880Z" fill="#cbcfe4" stroke="#cbcfe4"></path><path d="M246 880L288 960L333.5 890Z" fill="#959bc6" stroke="#959bc6"></path><path d="M111 846L121 881L194.5 869Z" fill="#626aa8" stroke="#626aa8"></path><path d="M88.5 889L121 881L111 846Z" fill="#cbcfe4" stroke="#cbcfe4"></path><path d="M88.5 889L111 846L85.5 836Z" fill="#6f76b0" stroke="#6f76b0"></path><path d="M382 74L293 53L360.5 90Z" fill="#7b82b7" stroke="#7b82b7"></path><path d="M400 960L428 903L333.5 890Z" fill="#bdc2dd" stroke="#bdc2dd"></path><path d="M333.5 890L428 903L363.5 832Z" fill="#e8eaf2" stroke="#e8eaf2"></path><path d="M0 777L0 816L56.5 790Z" fill="#bdc2dd" stroke="#bdc2dd"></path><path d="M293 53L207.5 46L242 135Z" fill="#bdc2dd" stroke="#bdc2dd"></path><path d="M125 130L39.5 118L58.5 165Z" fill="#d9ddeb" stroke="#d9ddeb"></path><path d="M52.5 87L39.5 118L125 130Z" fill="#959bc6" stroke="#959bc6"></path><path d="M58.5 165L0 115L0 219Z" fill="#888fbf" stroke="#888fbf"></path><path d="M0 870L88.5 889L85.5 836Z" fill="#626aa8" stroke="#626aa8"></path><path d="M206.5 960L246 880L194.5 869Z" fill="#afb5d5" stroke="#afb5d5"></path><path d="M428 903L497.5 895L449.5 844Z" fill="#6f76b0" stroke="#6f76b0"></path><path d="M497.5 895L540 873L540 840Z" fill="#afb5d5" stroke="#afb5d5"></path><path d="M145 39L52.5 87L125 130Z" fill="#afb5d5" stroke="#afb5d5"></path><path d="M208.5 0L145 39L207.5 46Z" fill="#e8eaf2" stroke="#e8eaf2"></path><path d="M207.5 46L145 39L183.5 131Z" fill="#afb5d5" stroke="#afb5d5"></path><path d="M206.5 960L194.5 869L130 960Z" fill="#959bc6" stroke="#959bc6"></path><path d="M428 903L478.5 960L497.5 895Z" fill="#e8eaf2" stroke="#e8eaf2"></path><path d="M288 960L338.5 960L333.5 890Z" fill="#959bc6" stroke="#959bc6"></path><path d="M52.5 87L0 115L39.5 118Z" fill="#d9ddeb" stroke="#d9ddeb"></path><path d="M39.5 118L0 115L58.5 165Z" fill="#626aa8" stroke="#626aa8"></path><path d="M130 960L194.5 869L121 881Z" fill="#7b82b7" stroke="#7b82b7"></path><path d="M338.5 960L400 960L333.5 890Z" fill="#6f76b0" stroke="#6f76b0"></path><path d="M497.5 895L540 960L540 873Z" fill="#d9ddeb" stroke="#d9ddeb"></path><path d="M0 816L0 870L85.5 836Z" fill="#afb5d5" stroke="#afb5d5"></path><path d="M88.5 889L130 960L121 881Z" fill="#959bc6" stroke="#959bc6"></path><path d="M310.5 0L287 0L293 53Z" fill="#bdc2dd" stroke="#bdc2dd"></path><path d="M293 53L287 0L207.5 46Z" fill="#afb5d5" stroke="#afb5d5"></path><path d="M310.5 0L293 53L382 74Z" fill="#6f76b0" stroke="#6f76b0"></path><path d="M413 0L310.5 0L382 74Z" fill="#afb5d5" stroke="#afb5d5"></path><path d="M540 44L486.5 37L499.5 135Z" fill="#afb5d5" stroke="#afb5d5"></path><path d="M287 0L208.5 0L207.5 46Z" fill="#cbcfe4" stroke="#cbcfe4"></path><path d="M145 39L39.5 0L52.5 87Z" fill="#959bc6" stroke="#959bc6"></path><path d="M52.5 87L0 50L0 115Z" fill="#d9ddeb" stroke="#d9ddeb"></path><path d="M450.5 0L413 0L382 74Z" fill="#d9ddeb" stroke="#d9ddeb"></path><path d="M48.5 960L130 960L88.5 889Z" fill="#888fbf" stroke="#888fbf"></path><path d="M540 142L540 44L499.5 135Z" fill="#cbcfe4" stroke="#cbcfe4"></path><path d="M486.5 37L450.5 0L382 74Z" fill="#e8eaf2" stroke="#e8eaf2"></path><path d="M400 960L478.5 960L428 903Z" fill="#7b82b7" stroke="#7b82b7"></path><path d="M540 0L450.5 0L486.5 37Z" fill="#afb5d5" stroke="#afb5d5"></path><path d="M208.5 0L141 0L145 39Z" fill="#888fbf" stroke="#888fbf"></path><path d="M39.5 0L0 50L52.5 87Z" fill="#6f76b0" stroke="#6f76b0"></path><path d="M478.5 960L540 960L497.5 895Z" fill="#7b82b7" stroke="#7b82b7"></path><path d="M0 870L48.5 960L88.5 889Z" fill="#7b82b7" stroke="#7b82b7"></path><path d="M540 44L540 0L486.5 37Z" fill="#afb5d5" stroke="#afb5d5"></path><path d="M141 0L39.5 0L145 39Z" fill="#d9ddeb" stroke="#d9ddeb"></path><path d="M0 870L0 960L48.5 960Z" fill="#888fbf" stroke="#888fbf"></path><path d="M39.5 0L0 0L0 50Z" fill="#cbcfe4" stroke="#cbcfe4"></path></g></svg>